<svg width="114" height="36" viewBox="0 0 114 36" fill="none" xmlns="http://www.w3.org/2000/svg">
<path d="M112.719 25.2693C112.729 25.2693 112.729 25.2693 112.739 25.2693C112.754 25.2693 112.754 25.2693 112.764 25.2693C113.08 25.2543 113.336 24.9838 113.336 24.6532C113.336 24.6381 113.336 24.6231 113.336 24.6031C113.336 24.598 113.336 24.593 113.336 24.563C113.336 21.4469 110.896 18.927 107.885 18.927C104.874 18.927 102.434 21.4519 102.434 24.563C102.434 24.7934 102.449 25.0289 102.474 25.2543V25.2643L102.484 25.3245C102.635 26.4466 103.111 27.4736 103.867 28.3053C103.867 28.3053 103.867 28.3053 103.872 28.3103C104.709 29.2321 105.846 29.8583 107.103 30.0937L107.118 30.0988L107.199 30.1138C107.239 30.1188 107.284 30.1288 107.344 30.1388C109.002 30.3392 110.475 30.0988 111.717 29.4725C112.023 29.3172 112.299 29.1469 112.539 28.9665C112.614 28.9064 112.684 28.8513 112.744 28.8012C112.775 28.7762 112.8 28.7511 112.815 28.7361C113.095 28.4455 113.115 28.3453 112.945 28.0798C112.759 27.7842 112.594 27.5287 112.454 27.3183C112.404 27.2432 112.364 27.1831 112.324 27.133C112.304 27.1029 112.304 27.1029 112.289 27.0879C112.284 27.0829 112.284 27.0829 112.279 27.0779C112.123 26.8875 112.018 26.8675 111.848 27.0178C111.828 27.0328 111.768 27.0829 111.758 27.0929C110.56 28.16 108.922 28.5006 107.289 28.16C106.983 28.0798 106.698 27.9746 106.437 27.8494C105.415 27.3334 104.689 26.4216 104.478 25.3595L104.463 25.2744H104.548L112.719 25.2693ZM104.629 23.2254C105.059 21.8176 106.367 20.8758 107.89 20.8758C109.348 20.8758 110.731 21.8627 111.211 23.2204L111.247 23.3155H104.604L104.629 23.2254Z" fill="#EE4D2D"/>
<path d="M99.9395 25.2693C99.9495 25.2693 99.9495 25.2693 99.9596 25.2693C99.9746 25.2693 99.9746 25.2693 99.9846 25.2693C100.3 25.2543 100.556 24.9838 100.556 24.6532C100.556 24.6381 100.556 24.6231 100.556 24.6031C100.556 24.598 100.556 24.593 100.556 24.563C100.556 21.4469 98.116 18.927 95.1051 18.927C92.0942 18.927 89.6545 21.4519 89.6545 24.563C89.6545 24.7934 89.6695 25.0289 89.6946 25.2543V25.2643L89.7046 25.3245C89.8549 26.4466 90.3308 27.4736 91.0873 28.3053C91.0873 28.3053 91.0873 28.3053 91.0923 28.3103C91.9289 29.2321 93.0661 29.8583 94.3236 30.0937L94.3386 30.0988L94.4188 30.1138C94.4588 30.1188 94.5039 30.1288 94.564 30.1388C96.2223 30.3392 97.6951 30.0988 98.9376 29.4725C99.2432 29.3172 99.5187 29.1469 99.7592 28.9665C99.8343 28.9064 99.9044 28.8513 99.9646 28.8012C99.9946 28.7762 100.02 28.7511 100.035 28.7361C100.315 28.4455 100.335 28.3453 100.165 28.0798C99.9796 27.7842 99.8143 27.5287 99.674 27.3183C99.6239 27.2432 99.5838 27.1831 99.5437 27.133C99.5237 27.1029 99.5237 27.1029 99.5087 27.0879C99.5037 27.0829 99.5037 27.0829 99.4987 27.0779C99.3434 26.8875 99.2381 26.8675 99.0678 27.0178C99.0478 27.0328 98.9877 27.0829 98.9776 27.0929C97.7803 28.16 96.1421 28.5006 94.5089 28.16C94.2033 28.0798 93.9178 27.9746 93.6573 27.8494C92.6353 27.3334 91.9089 26.4216 91.6985 25.3595L91.6834 25.2744H91.7686L99.9395 25.2693ZM91.8438 23.2254C92.2746 21.8176 93.5821 20.8758 95.1051 20.8758C96.5629 20.8758 97.9456 21.8627 98.4266 23.2204L98.4616 23.3155H91.8187L91.8438 23.2254Z" fill="#EE4D2D"/>
<path d="M82.0547 18.9067C80.7421 18.9067 79.4847 19.3576 78.4777 20.1792L78.3625 20.2744V19.2424C78.3625 18.9669 78.3024 18.9067 78.0268 18.9067H76.7393C76.4588 18.9067 76.4037 18.9618 76.4037 19.2424V35.6644C76.4037 35.9349 76.4638 36 76.7393 36H78.0268C78.3024 36 78.3625 35.9349 78.3625 35.6644V28.816L78.4777 28.9112C79.4847 29.7328 80.7421 30.1837 82.0547 30.1837C85.1757 30.1837 87.7057 27.6588 87.7057 24.5477C87.7107 21.4317 85.1757 18.9067 82.0547 18.9067ZM82.0547 28.2199C80.0508 28.2199 78.4176 26.6268 78.3625 24.6329V24.4425C78.4126 22.4486 80.0508 20.8555 82.0547 20.8555C84.0936 20.8555 85.7468 22.5037 85.7468 24.5377C85.7468 26.5717 84.0936 28.2199 82.0547 28.2199Z" fill="#EE4D2D"/>
<path d="M68.7188 18.9368C65.5426 18.9368 62.9676 21.4617 62.9676 24.5727C62.9676 27.6838 65.5426 30.2087 68.7188 30.2087C71.895 30.2087 74.47 27.6838 74.47 24.5727C74.475 21.4567 71.9 18.9368 68.7188 18.9368ZM68.7188 28.2499C66.6447 28.2499 64.9615 26.6017 64.9615 24.5677C64.9615 22.5338 66.6447 20.8856 68.7188 20.8856C70.7928 20.8856 72.4761 22.5338 72.4761 24.5677C72.4761 26.6017 70.7928 28.2499 68.7188 28.2499Z" fill="#EE4D2D"/>
<path d="M55.7935 18.922C54.6463 18.922 53.5391 19.2878 52.6173 19.9691L52.5071 20.0542V12.4294C52.5071 12.1789 52.4219 12.0938 52.1714 12.0938H50.8188C50.5433 12.0938 50.4832 12.1589 50.4832 12.4294V29.8233C50.4832 30.0888 50.5483 30.1589 50.8188 30.1589H52.1714C52.4219 30.1589 52.5071 30.0737 52.5071 29.8233V24.1422C52.5071 22.2335 53.9449 20.9259 55.7935 20.9109C57.602 20.8959 59.0799 22.2585 59.0799 24.1572V29.8233C59.0799 30.1088 59.13 30.1589 59.4155 30.1589H60.7682C61.0537 30.1589 61.1038 30.1088 61.1038 29.8233V24.1372C61.0938 21.2716 58.6992 18.922 55.7935 18.922Z" fill="#EE4D2D"/>
<path d="M36.8667 27.0631C36.6713 27.3637 36.5862 27.4839 36.5411 27.5541C36.3858 27.7795 36.4058 27.8847 36.6413 28.0801C37.1873 28.5209 37.8887 28.9818 38.3646 29.2123C39.6822 29.8535 41.11 30.1942 42.6179 30.2243C43.5948 30.2744 44.8172 30.0439 45.729 29.6381C47.3772 28.9067 48.4292 27.4739 48.6146 25.7155C48.9152 22.8649 47.0515 21.0815 42.2472 19.6437C40.0128 18.9273 38.9608 17.9704 38.9608 16.6378C39.0259 15.1649 40.3986 14.0628 42.2522 13.9927C43.7451 13.9977 45.0627 14.3884 46.3552 15.2201C46.6307 15.3854 46.756 15.3553 46.9363 15.1148C46.9564 15.0798 47.0165 14.9946 47.262 14.6439C47.4924 14.3183 47.5675 14.2081 47.5876 14.173C47.7429 13.8824 47.7178 13.7722 47.4423 13.5718C47.1668 13.3765 46.3903 12.9757 45.9494 12.8003C44.717 12.3094 43.4445 12.0739 42.1771 12.099C39.2914 12.1591 37.0421 14.0277 36.8918 16.4825C36.7966 18.251 37.6983 19.6787 39.587 20.7308C40.118 21.0063 42.0468 21.7377 42.9536 21.9982C45.5186 22.7447 46.8562 24.1224 46.5806 25.7455C46.3301 27.2184 44.7771 28.2003 42.5979 28.2705C41.0198 28.2354 39.4267 27.6593 38.044 26.6273C38.039 26.6222 38.0039 26.5972 37.9388 26.5471C37.8486 26.482 37.8486 26.482 37.8336 26.472C37.5531 26.2766 37.3877 26.2966 37.2124 26.5471C37.1823 26.5822 36.9719 26.9078 36.8667 27.0631Z" fill="#EE4D2D"/>
<path fill-rule="evenodd" clip-rule="evenodd" d="M26.3563 34.0914C27.9093 34.0513 29.1668 32.7938 29.297 31.2408L29.3071 31.0555L30.4042 8.91235C30.4042 8.90233 30.4042 8.89231 30.4042 8.87728C30.4042 8.51658 30.1136 8.22601 29.7529 8.22601C29.7479 8.22601 29.7479 8.22601 29.7429 8.22601H22.6942C22.5238 3.6471 19.2324 0 15.1996 0C11.1667 0 7.88034 3.6471 7.71001 8.22601H0.641248C0.285556 8.23102 0 8.52159 0 8.87728C0 8.89231 0 8.91235 0 8.92738L1.00195 30.9853L1.01698 31.2609C1.17228 32.7938 2.28946 34.0312 3.81743 34.0864L26.2411 34.0914H26.3563ZM15.1996 1.98887C18.1353 1.98887 20.53 4.75926 20.6452 8.22601H9.759C9.86921 4.75926 12.2639 1.98887 15.1996 1.98887ZM20.7754 25.5147C20.5751 27.1529 19.5781 28.4654 18.0301 29.1217C17.1684 29.4874 16.0112 29.6828 15.0944 29.6227C13.6666 29.5676 12.324 29.2219 11.0866 28.5907C10.6457 28.3652 9.98444 27.9143 9.47845 27.4935C9.3482 27.3883 9.33317 27.3182 9.41833 27.1979C9.46342 27.1278 9.54859 27.0076 9.73395 26.732C10.0045 26.3363 10.0395 26.2912 10.0696 26.2411C10.1548 26.1108 10.295 26.0958 10.4353 26.206C10.4503 26.216 10.4503 26.216 10.4604 26.2261C10.4854 26.2411 10.4854 26.2411 10.5355 26.2862C10.5906 26.3263 10.6207 26.3513 10.6357 26.3613C11.9683 27.3983 13.5263 27.9995 15.0944 28.0596C17.2786 28.0296 18.8467 27.0577 19.1272 25.5598C19.4378 23.9115 18.1353 22.4888 15.5853 21.6972C14.7888 21.4468 12.7749 20.6502 12.4041 20.4348C10.6608 19.4178 9.84416 18.0902 9.95939 16.442C10.1347 14.1626 12.2689 12.4643 14.9591 12.4542C16.1615 12.4542 17.3638 12.6997 18.516 13.1807C18.9268 13.351 19.6533 13.7468 19.9037 13.9321C20.049 14.0373 20.0791 14.1626 19.9939 14.2928C19.9488 14.368 19.8687 14.4932 19.7084 14.7487V14.7537C19.4929 15.0894 19.4879 15.0994 19.4378 15.1796C19.3527 15.3048 19.2525 15.3198 19.1022 15.2246C17.8698 14.403 16.4971 13.9872 14.9942 13.9572C13.1205 13.9922 11.7178 15.0994 11.6226 16.6123C11.5976 17.975 12.6296 18.9719 14.8489 19.7284C19.3727 21.1612 21.0961 22.8495 20.7754 25.5147Z" fill="#EE4D2D"/>
</svg>
