<svg width="182" height="45" viewBox="0 0 182 45" fill="none" xmlns="http://www.w3.org/2000/svg">
<g clip-path="url(#clip0)">
<path d="M124.132 27.8279C124.143 27.8279 124.143 27.8279 124.154 27.8279C124.171 27.8279 124.171 27.8279 124.182 27.8279C124.53 27.8114 124.812 27.5135 124.812 27.1494C124.812 27.1328 124.812 27.1163 124.812 27.0942C124.812 27.0886 124.812 27.0831 124.812 27.0501C124.812 23.6185 122.125 20.8434 118.809 20.8434C115.493 20.8434 112.806 23.624 112.806 27.0501C112.806 27.3038 112.822 27.5632 112.85 27.8114V27.8224L112.861 27.8887C113.027 29.1244 113.551 30.2554 114.384 31.1713C114.384 31.1713 114.384 31.1713 114.389 31.1768C115.311 32.1919 116.563 32.8815 117.948 33.1408L117.964 33.1464L118.053 33.1629C118.097 33.1684 118.147 33.1794 118.213 33.1904C120.039 33.4111 121.661 33.1464 123.029 32.4567C123.366 32.2857 123.67 32.0981 123.934 31.8994C124.017 31.8333 124.094 31.7726 124.16 31.7174C124.194 31.6899 124.221 31.6622 124.238 31.6457C124.546 31.3257 124.568 31.2153 124.381 30.923C124.176 30.5974 123.995 30.3161 123.84 30.0844C123.785 30.0017 123.741 29.9355 123.697 29.8803C123.675 29.8472 123.675 29.8472 123.659 29.8306C123.653 29.8251 123.653 29.8251 123.648 29.8196C123.476 29.6099 123.36 29.5879 123.173 29.7534C123.151 29.77 123.085 29.8251 123.074 29.8361C121.755 31.0113 119.951 31.3864 118.152 31.0113C117.815 30.923 117.502 30.8071 117.214 30.6692C116.089 30.101 115.289 29.0969 115.057 27.9272L115.04 27.8335H115.134L124.132 27.8279ZM115.223 25.577C115.697 24.0267 117.137 22.9895 118.814 22.9895C120.42 22.9895 121.943 24.0764 122.471 25.5715L122.511 25.6763H115.195L115.223 25.577Z" fill="#EE4D2D"/>
<path d="M110.059 27.8279C110.07 27.8279 110.07 27.8279 110.081 27.8279C110.097 27.8279 110.097 27.8279 110.108 27.8279C110.456 27.8114 110.738 27.5135 110.738 27.1494C110.738 27.1328 110.738 27.1163 110.738 27.0942C110.738 27.0886 110.738 27.0831 110.738 27.0501C110.738 23.6185 108.051 20.8434 104.735 20.8434C101.419 20.8434 98.7323 23.624 98.7323 27.0501C98.7323 27.3038 98.7488 27.5632 98.7765 27.8114V27.8224L98.7875 27.8887C98.953 29.1244 99.4771 30.2554 100.31 31.1713C100.31 31.1713 100.31 31.1713 100.316 31.1768C101.237 32.1919 102.489 32.8815 103.874 33.1408L103.891 33.1464L103.979 33.1629C104.023 33.1684 104.073 33.1794 104.139 33.1904C105.965 33.4111 107.587 33.1464 108.955 32.4567C109.292 32.2857 109.595 32.0981 109.86 31.8994C109.943 31.8333 110.02 31.7726 110.086 31.7174C110.119 31.6899 110.147 31.6622 110.164 31.6457C110.472 31.3257 110.494 31.2153 110.307 30.923C110.103 30.5974 109.921 30.3161 109.766 30.0844C109.711 30.0017 109.667 29.9355 109.623 29.8803C109.601 29.8472 109.601 29.8472 109.584 29.8306C109.579 29.8251 109.579 29.8251 109.573 29.8196C109.402 29.6099 109.286 29.5879 109.099 29.7534C109.077 29.77 109.011 29.8251 108.999 29.8361C107.681 31.0113 105.877 31.3864 104.078 31.0113C103.742 30.923 103.427 30.8071 103.14 30.6692C102.015 30.101 101.215 29.0969 100.983 27.9272L100.967 27.8335H101.06L110.059 27.8279ZM101.143 25.577C101.618 24.0267 103.058 22.9895 104.735 22.9895C106.34 22.9895 107.863 24.0764 108.393 25.5715L108.431 25.6763H101.116L101.143 25.577Z" fill="#EE4D2D"/>
<path d="M90.363 20.8211C88.9175 20.8211 87.5328 21.3176 86.4238 22.2224L86.297 22.3273V21.1908C86.297 20.8874 86.2308 20.8211 85.9273 20.8211H84.5094C84.2005 20.8211 84.1398 20.8817 84.1398 21.1908V39.2755C84.1398 39.5734 84.206 39.6451 84.5094 39.6451H85.9273C86.2308 39.6451 86.297 39.5734 86.297 39.2755V31.7337L86.4238 31.8386C87.5328 32.7433 88.9175 33.2399 90.363 33.2399C93.8 33.2399 96.5862 30.4593 96.5862 27.0332C96.5917 23.6017 93.8 20.8211 90.363 20.8211ZM90.363 31.0773C88.1562 31.0773 86.3576 29.3229 86.297 27.1271V26.9174C86.3521 24.7216 88.1562 22.9672 90.363 22.9672C92.6084 22.9672 94.4289 24.7823 94.4289 27.0222C94.4289 29.2622 92.6084 31.0773 90.363 31.0773Z" fill="#EE4D2D"/>
<path d="M75.6768 20.8542C72.179 20.8542 69.3433 23.6348 69.3433 27.0608C69.3433 30.4869 72.179 33.2674 75.6768 33.2674C79.1746 33.2674 82.0103 30.4869 82.0103 27.0608C82.0159 23.6293 79.1801 20.8542 75.6768 20.8542ZM75.6768 31.1103C73.3927 31.1103 71.5391 29.2952 71.5391 27.0553C71.5391 24.8154 73.3927 23.0003 75.6768 23.0003C77.9608 23.0003 79.8146 24.8154 79.8146 27.0553C79.8146 29.2952 77.9608 31.1103 75.6768 31.1103Z" fill="#EE4D2D"/>
<path d="M61.4428 20.8379C60.1794 20.8379 58.9601 21.2407 57.945 21.991L57.8236 22.0847V13.6879C57.8236 13.412 57.7298 13.3183 57.4539 13.3183H55.9644C55.661 13.3183 55.5948 13.39 55.5948 13.6879V32.843C55.5948 33.1354 55.6665 33.2126 55.9644 33.2126H57.4539C57.7298 33.2126 57.8236 33.1188 57.8236 32.843V26.5867C57.8236 24.4847 59.407 23.0447 61.4428 23.0282C63.4344 23.0117 65.0619 24.5122 65.0619 26.6032V32.843C65.0619 33.1574 65.1171 33.2126 65.4315 33.2126H66.9212C67.2356 33.2126 67.2908 33.1574 67.2908 32.843V26.5812C67.2798 23.4254 64.6427 20.8379 61.4428 20.8379Z" fill="#EE4D2D"/>
<path d="M40.5996 29.8033C40.3844 30.1344 40.2907 30.2667 40.241 30.344C40.07 30.5923 40.092 30.7081 40.3514 30.9233C40.9526 31.4087 41.7251 31.9163 42.2492 32.1701C43.7002 32.8763 45.2725 33.2515 46.9331 33.2846C48.0089 33.3398 49.3551 33.0859 50.3592 32.6391C52.1743 31.8336 53.3328 30.2557 53.537 28.3193C53.868 25.18 51.8156 23.2161 46.5249 21.6327C44.0642 20.8438 42.9057 19.79 42.9057 18.3224C42.9774 16.7004 44.4891 15.4867 46.5304 15.4095C48.1744 15.415 49.6255 15.8453 51.0488 16.7612C51.3522 16.9432 51.4902 16.9101 51.6888 16.6452C51.7109 16.6067 51.7771 16.5129 52.0474 16.1266C52.3012 15.7681 52.3839 15.6467 52.406 15.6081C52.577 15.288 52.5494 15.1667 52.246 14.946C51.9426 14.7309 51.0875 14.2895 50.6019 14.0964C49.2448 13.5558 47.8434 13.2964 46.4477 13.3241C43.2698 13.3902 40.7927 15.4481 40.6272 18.1514C40.5224 20.099 41.5154 21.6712 43.5953 22.8299C44.1801 23.1333 46.3042 23.9387 47.3028 24.2256C50.1275 25.0477 51.6006 26.5649 51.2971 28.3523C51.0212 29.9744 49.3109 31.0557 46.9111 31.133C45.1732 31.0943 43.4188 30.4599 41.8961 29.3234C41.8906 29.3178 41.8519 29.2903 41.7802 29.2351C41.6809 29.1634 41.6809 29.1634 41.6644 29.1524C41.3555 28.9372 41.1733 28.9592 40.9803 29.2351C40.9471 29.2737 40.7154 29.6323 40.5996 29.8033Z" fill="#EE4D2D"/>
<path fill-rule="evenodd" clip-rule="evenodd" d="M29.025 37.5433C30.7352 37.4991 32.12 36.1143 32.2634 34.404L32.2745 34.2L33.4827 9.81475C33.4827 9.80372 33.4827 9.79269 33.4827 9.77613C33.4827 9.37891 33.1627 9.05892 32.7655 9.05892C32.76 9.05892 32.76 9.05892 32.7545 9.05892H24.9921C24.8044 4.01638 21.1797 0 16.7386 0C12.2974 0 8.67825 4.01638 8.49067 9.05892H0.706177C0.31447 9.06444 0 9.38443 0 9.77613C0 9.79269 0 9.81475 0 9.83131L1.1034 34.1227L1.11995 34.4262C1.29098 36.1143 2.52128 37.477 4.20396 37.5378L28.8981 37.5433H29.025ZM16.7386 2.19025C19.9716 2.19025 22.6087 5.24115 22.7356 9.05892H10.7471C10.8685 5.24115 13.5057 2.19025 16.7386 2.19025ZM22.879 28.0981C22.6584 29.9022 21.5604 31.3476 19.8557 32.0704C18.9068 32.4731 17.6324 32.6883 16.6228 32.6221C15.0504 32.5614 13.5718 32.1807 12.2092 31.4856C11.7236 31.2373 10.9954 30.7407 10.4382 30.2773C10.2947 30.1615 10.2782 30.0843 10.372 29.9518C10.4216 29.8746 10.5154 29.7422 10.7195 29.4387C11.0175 29.0029 11.056 28.9533 11.0892 28.8981C11.183 28.7546 11.3374 28.7381 11.4919 28.8594C11.5084 28.8705 11.5084 28.8705 11.5196 28.8816C11.5471 28.8981 11.5471 28.8981 11.6023 28.9478C11.6629 28.9919 11.6961 29.0195 11.7126 29.0305C13.1801 30.1725 14.8959 30.8345 16.6228 30.9007C19.0281 30.8677 20.755 29.7974 21.0639 28.1478C21.4059 26.3326 19.9716 24.7659 17.1634 23.8941C16.2862 23.6184 14.0684 22.7411 13.6601 22.5039C11.7402 21.3839 10.8409 19.9219 10.9678 18.1068C11.1609 15.5966 13.5112 13.7264 16.4738 13.7152C17.7979 13.7152 19.1219 13.9856 20.3908 14.5153C20.8432 14.7028 21.6433 15.1387 21.919 15.3428C22.079 15.4586 22.1122 15.5966 22.0184 15.74C21.9687 15.8228 21.8805 15.9607 21.7039 16.2421V16.2476C21.4666 16.6173 21.4611 16.6283 21.4059 16.7166C21.3122 16.8545 21.2019 16.871 21.0364 16.7661C19.6792 15.8614 18.1675 15.4034 16.5124 15.3704C14.449 15.409 12.9043 16.6283 12.7994 18.2944C12.7719 19.795 13.9084 20.8929 16.3524 21.726C21.3343 23.3038 23.2322 25.1631 22.879 28.0981Z" fill="#EE4D2D"/>
</g>
<path d="M131.017 38.7185C130.176 38.7185 129.423 38.5367 128.758 38.1731C128.104 37.8096 127.589 37.3109 127.215 36.6773C126.841 36.0332 126.654 35.3061 126.654 34.4959C126.654 33.6856 126.841 32.9637 127.215 32.33C127.589 31.686 128.104 31.1873 128.758 30.8342C129.423 30.4706 130.176 30.2888 131.017 30.2888C131.765 30.2888 132.43 30.4394 133.012 30.7407C133.604 31.0419 134.061 31.4782 134.383 32.0495L133.245 32.7819C132.986 32.3871 132.664 32.0911 132.279 31.8937C131.895 31.6963 131.469 31.5977 131.002 31.5977C130.462 31.5977 129.973 31.7171 129.537 31.956C129.111 32.195 128.774 32.5378 128.524 32.9844C128.285 33.4207 128.166 33.9245 128.166 34.4959C128.166 35.0776 128.285 35.5918 128.524 36.0384C128.774 36.4747 129.111 36.8123 129.537 37.0513C129.973 37.2902 130.462 37.4096 131.002 37.4096C131.469 37.4096 131.895 37.3109 132.279 37.1136C132.664 36.9162 132.986 36.6202 133.245 36.2254L134.383 36.9422C134.061 37.5135 133.604 37.955 133.012 38.2666C132.43 38.5679 131.765 38.7185 131.017 38.7185ZM139.327 30.2888C140.469 30.2888 141.342 30.5693 141.945 31.1302C142.557 31.6912 142.864 32.5274 142.864 33.6389V38.625H141.446V37.5343C141.197 37.9186 140.838 38.2147 140.371 38.4224C139.914 38.6198 139.368 38.7185 138.735 38.7185C137.81 38.7185 137.067 38.4952 136.507 38.0485C135.956 37.6018 135.681 37.0149 135.681 36.2877C135.681 35.5606 135.946 34.9789 136.475 34.5426C137.005 34.0959 137.847 33.8726 139 33.8726H141.368V33.5765C141.368 32.9325 141.181 32.4391 140.807 32.0963C140.433 31.7535 139.883 31.5821 139.155 31.5821C138.667 31.5821 138.189 31.6652 137.722 31.8314C137.254 31.9872 136.86 32.2002 136.538 32.4702L135.914 31.3484C136.34 31.0056 136.849 30.7459 137.441 30.5693C138.034 30.3823 138.662 30.2888 139.327 30.2888ZM138.984 37.5654C139.555 37.5654 140.049 37.4408 140.464 37.1915C140.88 36.9318 141.181 36.5682 141.368 36.1008V34.9477H139.062C137.795 34.9477 137.161 35.3736 137.161 36.2254C137.161 36.6409 137.322 36.9681 137.644 37.2071C137.966 37.446 138.413 37.5654 138.984 37.5654ZM147.066 31.7535C147.325 31.2756 147.71 30.9121 148.219 30.6628C148.728 30.4135 149.346 30.2888 150.073 30.2888V31.7379C149.99 31.7275 149.875 31.7223 149.73 31.7223C148.92 31.7223 148.281 31.9664 147.813 32.4547C147.356 32.9325 147.128 33.6181 147.128 34.5114V38.625H145.632V30.3667H147.066V31.7535ZM159.304 34.5426C159.304 34.6569 159.294 34.8075 159.273 34.9945H152.573C152.666 35.7216 152.983 36.3085 153.523 36.7552C154.074 37.1915 154.754 37.4096 155.564 37.4096C156.551 37.4096 157.346 37.0772 157.948 36.4124L158.774 37.3785C158.4 37.8148 157.933 38.1472 157.372 38.3757C156.821 38.6042 156.203 38.7185 155.518 38.7185C154.645 38.7185 153.871 38.5419 153.196 38.1887C152.521 37.8251 151.996 37.3213 151.622 36.6773C151.259 36.0332 151.077 35.3061 151.077 34.4959C151.077 33.696 151.253 32.974 151.607 32.33C151.97 31.686 152.464 31.1873 153.087 30.8342C153.721 30.4706 154.432 30.2888 155.222 30.2888C156.011 30.2888 156.712 30.4706 157.325 30.8342C157.948 31.1873 158.431 31.686 158.774 32.33C159.127 32.974 159.304 33.7116 159.304 34.5426ZM155.222 31.5509C154.505 31.5509 153.902 31.7691 153.414 32.2053C152.936 32.6416 152.656 33.213 152.573 33.9193H157.87C157.787 33.2234 157.502 32.6572 157.013 32.2209C156.536 31.7743 155.938 31.5509 155.222 31.5509ZM168.845 34.5426C168.845 34.6569 168.834 34.8075 168.814 34.9945H162.113C162.207 35.7216 162.524 36.3085 163.064 36.7552C163.614 37.1915 164.295 37.4096 165.105 37.4096C166.092 37.4096 166.887 37.0772 167.489 36.4124L168.315 37.3785C167.941 37.8148 167.474 38.1472 166.913 38.3757C166.362 38.6042 165.744 38.7185 165.058 38.7185C164.186 38.7185 163.412 38.5419 162.737 38.1887C162.062 37.8251 161.537 37.3213 161.163 36.6773C160.799 36.0332 160.618 35.3061 160.618 34.4959C160.618 33.696 160.794 32.974 161.147 32.33C161.511 31.686 162.004 31.1873 162.628 30.8342C163.261 30.4706 163.973 30.2888 164.762 30.2888C165.552 30.2888 166.253 30.4706 166.866 30.8342C167.489 31.1873 167.972 31.686 168.315 32.33C168.668 32.974 168.845 33.7116 168.845 34.5426ZM164.762 31.5509C164.046 31.5509 163.443 31.7691 162.955 32.2053C162.477 32.6416 162.197 33.213 162.113 33.9193H167.411C167.328 33.2234 167.042 32.6572 166.554 32.2209C166.076 31.7743 165.479 31.5509 164.762 31.5509ZM172.355 31.7535C172.615 31.2756 172.999 30.9121 173.508 30.6628C174.017 30.4135 174.635 30.2888 175.363 30.2888V31.7379C175.28 31.7275 175.165 31.7223 175.02 31.7223C174.21 31.7223 173.571 31.9664 173.103 32.4547C172.646 32.9325 172.418 33.6181 172.418 34.5114V38.625H170.922V30.3667H172.355V31.7535Z" fill="#EE4D2D"/>
<defs>
<clipPath id="clip0">
<rect width="125.543" height="39.6451" fill="white"/>
</clipPath>
</defs>
</svg>
