<svg width="195" height="41" viewBox="0 0 195 41" fill="none" xmlns="http://www.w3.org/2000/svg">
<g clip-path="url(#clip0)">
<path d="M122.6 27.5688C122.611 27.5688 122.611 27.5688 122.621 27.5688C122.638 27.5688 122.638 27.5688 122.649 27.5688C122.992 27.5525 123.271 27.2582 123.271 26.8987C123.271 26.8822 123.271 26.8659 123.271 26.8442C123.271 26.8386 123.271 26.8332 123.271 26.8006C123.271 23.4113 120.617 20.6705 117.342 20.6705C114.067 20.6705 111.413 23.4167 111.413 26.8006C111.413 27.0512 111.429 27.3073 111.457 27.5525V27.5633L111.468 27.6288C111.632 28.8493 112.149 29.9663 112.972 30.8709C112.972 30.8709 112.972 30.8709 112.977 30.8763C113.888 31.8789 115.124 32.56 116.491 32.8161L116.508 32.8216L116.596 32.8379C116.639 32.8434 116.688 32.8542 116.754 32.8651C118.557 33.0831 120.159 32.8216 121.51 32.1404C121.843 31.9715 122.143 31.7863 122.404 31.5901C122.485 31.5247 122.562 31.4648 122.627 31.4103C122.661 31.3831 122.688 31.3558 122.704 31.3395C123.009 31.0234 123.03 30.9144 122.845 30.6256C122.643 30.3041 122.464 30.0262 122.311 29.7974C122.257 29.7157 122.214 29.6503 122.17 29.5958C122.148 29.5631 122.148 29.5631 122.132 29.5468C122.127 29.5413 122.127 29.5413 122.121 29.5359C121.951 29.3288 121.837 29.3071 121.652 29.4705C121.631 29.4869 121.565 29.5413 121.554 29.5522C120.251 30.7129 118.47 31.0833 116.694 30.7129C116.361 30.6256 116.051 30.5112 115.767 30.375C114.655 29.8138 113.866 28.8221 113.636 27.6669L113.62 27.5743H113.712L122.6 27.5688ZM113.801 25.3457C114.268 23.8145 115.691 22.7901 117.347 22.7901C118.933 22.7901 120.437 23.8636 120.959 25.3403L120.999 25.4437H113.773L113.801 25.3457Z" fill="#EE4D2D"/>
<path d="M108.7 27.5688C108.711 27.5688 108.711 27.5688 108.722 27.5688C108.738 27.5688 108.738 27.5688 108.749 27.5688C109.092 27.5525 109.371 27.2582 109.371 26.8987C109.371 26.8822 109.371 26.8659 109.371 26.8442C109.371 26.8386 109.371 26.8332 109.371 26.8006C109.371 23.4113 106.717 20.6705 103.442 20.6705C100.167 20.6705 97.5134 23.4167 97.5134 26.8006C97.5134 27.0512 97.5297 27.3073 97.557 27.5525V27.5633L97.5679 27.6288C97.7314 28.8493 98.249 29.9663 99.0718 30.8709C99.0718 30.8709 99.0718 30.8709 99.0772 30.8763C99.9872 31.8789 101.224 32.56 102.592 32.8161L102.608 32.8216L102.695 32.8379C102.739 32.8434 102.788 32.8542 102.853 32.8651C104.657 33.0831 106.259 32.8216 107.61 32.1404C107.943 31.9715 108.242 31.7863 108.504 31.5901C108.586 31.5247 108.662 31.4648 108.727 31.4103C108.76 31.3831 108.788 31.3558 108.804 31.3395C109.108 31.0234 109.13 30.9144 108.945 30.6256C108.744 30.3041 108.564 30.0262 108.411 29.7974C108.357 29.7157 108.313 29.6503 108.269 29.5958C108.248 29.5631 108.248 29.5631 108.231 29.5468C108.226 29.5413 108.226 29.5413 108.221 29.5359C108.052 29.3288 107.937 29.3071 107.752 29.4705C107.73 29.4869 107.665 29.5413 107.654 29.5522C106.351 30.7129 104.57 31.0833 102.793 30.7129C102.461 30.6256 102.15 30.5112 101.867 30.375C100.755 29.8138 99.9654 28.8221 99.7366 27.6669L99.7201 27.5743H99.8128L108.7 27.5688ZM99.8946 25.3457C100.363 23.8145 101.785 22.7901 103.442 22.7901C105.027 22.7901 106.531 23.8636 107.054 25.3403L107.093 25.4437H99.8673L99.8946 25.3457Z" fill="#EE4D2D"/>
<path d="M89.2474 20.6485C87.8198 20.6485 86.4521 21.1389 85.3569 22.0325L85.2316 22.136V21.0136C85.2316 20.7139 85.1662 20.6485 84.8664 20.6485H83.4661C83.161 20.6485 83.1011 20.7084 83.1011 21.0136V38.8751C83.1011 39.1693 83.1664 39.2401 83.4661 39.2401H84.8664C85.1662 39.2401 85.2316 39.1693 85.2316 38.8751V31.4264L85.3569 31.5299C86.4521 32.4235 87.8198 32.914 89.2474 32.914C92.642 32.914 95.3938 30.1677 95.3938 26.7839C95.3992 23.3948 92.642 20.6485 89.2474 20.6485ZM89.2474 30.778C87.0679 30.778 85.2915 29.0453 85.2316 26.8766V26.6695C85.2861 24.5008 87.0679 22.7681 89.2474 22.7681C91.465 22.7681 93.2632 24.5608 93.2632 26.7731C93.2632 28.9853 91.465 30.778 89.2474 30.778Z" fill="#EE4D2D"/>
<path d="M74.7425 20.6812C71.2879 20.6812 68.4872 23.4274 68.4872 26.8111C68.4872 30.1949 71.2879 32.9411 74.7425 32.9411C78.1972 32.9411 80.9979 30.1949 80.9979 26.8111C81.0033 23.422 78.2026 20.6812 74.7425 20.6812ZM74.7425 30.8106C72.4866 30.8106 70.6559 29.018 70.6559 26.8057C70.6559 24.5935 72.4866 22.8008 74.7425 22.8008C76.9983 22.8008 78.8292 24.5935 78.8292 26.8057C78.8292 29.018 76.9983 30.8106 74.7425 30.8106Z" fill="#EE4D2D"/>
<path d="M60.6842 20.6651C59.4365 20.6651 58.2322 21.063 57.2296 21.804L57.1097 21.8965V13.6034C57.1097 13.3309 57.0171 13.2383 56.7446 13.2383H55.2735C54.9738 13.2383 54.9084 13.3091 54.9084 13.6034V32.522C54.9084 32.8107 54.9792 32.887 55.2735 32.887H56.7446C57.0171 32.887 57.1097 32.7943 57.1097 32.522V26.3429C57.1097 24.2669 58.6736 22.8446 60.6842 22.8283C62.6513 22.812 64.2587 24.2941 64.2587 26.3592V32.522C64.2587 32.8325 64.3132 32.887 64.6237 32.887H66.095C66.4055 32.887 66.46 32.8325 66.46 32.522V26.3374C66.4491 23.2206 63.8446 20.6651 60.6842 20.6651Z" fill="#EE4D2D"/>
<path d="M40.0983 29.5198C39.8858 29.8468 39.7933 29.9775 39.7442 30.0539C39.5753 30.299 39.597 30.4134 39.8532 30.626C40.4471 31.1054 41.2099 31.6067 41.7276 31.8574C43.1607 32.5548 44.7136 32.9254 46.3537 32.9581C47.4162 33.0126 48.7458 32.7619 49.7375 32.3205C51.5302 31.525 52.6744 29.9666 52.876 28.0541C53.203 24.9536 51.1759 23.0139 45.9505 21.4501C43.5202 20.6709 42.376 19.6301 42.376 18.1807C42.4468 16.5787 43.9398 15.3799 45.9559 15.3037C47.5797 15.3091 49.0128 15.7341 50.4186 16.6387C50.7182 16.8185 50.8545 16.7857 51.0506 16.5242C51.0725 16.4861 51.1379 16.3934 51.4049 16.012C51.6555 15.6578 51.7372 15.538 51.759 15.4998C51.9279 15.1837 51.9006 15.0639 51.601 14.8459C51.3013 14.6335 50.4568 14.1976 49.9772 14.0068C48.6368 13.4729 47.2527 13.2167 45.8742 13.244C42.7356 13.3094 40.2891 15.3418 40.1256 18.0118C40.0221 19.9353 41.0028 21.4881 43.0571 22.6325C43.6347 22.9321 45.7325 23.7276 46.7188 24.0109C49.5087 24.8229 50.9635 26.3213 50.6637 28.0867C50.3913 29.6887 48.7022 30.7567 46.3319 30.8331C44.6155 30.7949 42.8828 30.1683 41.3788 29.0458C41.3734 29.0403 41.3352 29.0131 41.2644 28.9586C41.1663 28.8878 41.1663 28.8878 41.15 28.8769C40.8449 28.6644 40.665 28.6861 40.4744 28.9586C40.4416 28.9968 40.2128 29.3509 40.0983 29.5198Z" fill="#EE4D2D"/>
<path fill-rule="evenodd" clip-rule="evenodd" d="M28.6666 37.1642C30.3558 37.1206 31.7235 35.7529 31.8651 34.0637L31.8761 33.8622L33.0694 9.77803C33.0694 9.76713 33.0694 9.75623 33.0694 9.73988C33.0694 9.34757 32.7533 9.03152 32.361 9.03152C32.3555 9.03152 32.3555 9.03152 32.3501 9.03152H24.6835C24.4982 4.05124 20.9183 0.0844421 16.532 0.0844421C12.1455 0.0844421 8.57111 4.05124 8.38585 9.03152H0.697458C0.310587 9.03697 0 9.35301 0 9.73988C0 9.75623 0 9.77803 0 9.79437L1.08978 33.7858L1.10613 34.0856C1.27504 35.7529 2.49015 37.0987 4.15206 37.1588L28.5413 37.1642H28.6666ZM16.532 2.24765C19.725 2.24765 22.3296 5.26089 22.4549 9.03152H10.6145C10.7343 5.26089 13.3389 2.24765 16.532 2.24765ZM22.5965 27.8357C22.3787 29.6175 21.2943 31.0451 19.6106 31.7589C18.6733 32.1566 17.4147 32.3692 16.4175 32.3038C14.8646 32.2439 13.4043 31.8679 12.0584 31.1813C11.5789 30.9361 10.8597 30.4456 10.3093 29.988C10.1676 29.8735 10.1513 29.7973 10.2439 29.6664C10.293 29.5902 10.3856 29.4595 10.5872 29.1597C10.8815 28.7293 10.9195 28.6803 10.9523 28.6258C11.0449 28.4841 11.1974 28.4677 11.35 28.5876C11.3663 28.5985 11.3663 28.5985 11.3773 28.6095C11.4045 28.6258 11.4045 28.6258 11.459 28.6748C11.5189 28.7184 11.5517 28.7456 11.568 28.7565C13.0174 29.8844 14.712 30.5383 16.4175 30.6037C18.7932 30.571 20.4988 29.514 20.8038 27.8848C21.1417 26.092 19.725 24.5446 16.9515 23.6836C16.0852 23.4112 13.8947 22.5448 13.4914 22.3105C11.5953 21.2044 10.7071 19.7604 10.8324 17.9677C11.0231 15.4885 13.3444 13.6413 16.2704 13.6303C17.5782 13.6303 18.8859 13.8974 20.1391 14.4205C20.5859 14.6058 21.3761 15.0363 21.6484 15.2378C21.8064 15.3522 21.8392 15.4885 21.7465 15.6301C21.6975 15.7119 21.6103 15.8481 21.436 16.126V16.1314C21.2016 16.4965 21.1962 16.5074 21.1417 16.5946C21.0491 16.7308 20.9401 16.7471 20.7767 16.6436C19.4362 15.75 17.9432 15.2977 16.3086 15.2651C14.2706 15.3032 12.745 16.5074 12.6414 18.1529C12.6142 19.6351 13.7367 20.7194 16.1505 21.5422C21.0709 23.1006 22.9453 24.9369 22.5965 27.8357Z" fill="#EE4D2D"/>
</g>
<path d="M134.476 25.7914L131.474 28.8399V33.0844H129.129V16.6692H131.474V25.8383L140.385 16.6692H143.058L136.047 24.056L143.504 33.0844H140.76L134.476 25.7914ZM156.831 20.6557V33.0844H154.674V31.1146C154.173 31.8025 153.54 32.3262 152.774 32.6858C152.008 33.0453 151.164 33.2251 150.242 33.2251C149.038 33.2251 147.959 32.9594 147.005 32.4278C146.052 31.8963 145.301 31.1537 144.754 30.2C144.223 29.2307 143.957 28.1208 143.957 26.8701C143.957 25.6194 144.223 24.5172 144.754 23.5636C145.301 22.6099 146.052 21.8673 147.005 21.3358C147.959 20.8042 149.038 20.5385 150.242 20.5385C151.133 20.5385 151.953 20.7104 152.704 21.0544C153.454 21.3827 154.08 21.8751 154.58 22.5318V20.6557H156.831ZM150.429 31.2553C151.211 31.2553 151.922 31.0755 152.563 30.7159C153.204 30.3407 153.704 29.8248 154.064 29.1682C154.424 28.496 154.603 27.7299 154.603 26.8701C154.603 26.0102 154.424 25.252 154.064 24.5954C153.704 23.9231 153.204 23.4072 152.563 23.0477C151.922 22.6881 151.211 22.5083 150.429 22.5083C149.632 22.5083 148.913 22.6881 148.272 23.0477C147.646 23.4072 147.146 23.9231 146.771 24.5954C146.411 25.252 146.232 26.0102 146.232 26.8701C146.232 27.7299 146.411 28.496 146.771 29.1682C147.146 29.8248 147.646 30.3407 148.272 30.7159C148.913 31.0755 149.632 31.2553 150.429 31.2553ZM163.248 22.7428C163.639 22.0237 164.217 21.4765 164.983 21.1013C165.75 20.7261 166.68 20.5385 167.774 20.5385V22.7194C167.649 22.7037 167.477 22.6959 167.258 22.6959C166.039 22.6959 165.077 23.0633 164.374 23.7981C163.686 24.5172 163.342 25.549 163.342 26.8935V33.0844H161.091V20.6557H163.248V22.7428ZM170.549 20.6557H172.8V33.0844H170.549V20.6557ZM171.674 18.2638C171.237 18.2638 170.869 18.1231 170.572 17.8417C170.291 17.5603 170.15 17.2163 170.15 16.8099C170.15 16.4034 170.291 16.0595 170.572 15.778C170.869 15.481 171.237 15.3325 171.674 15.3325C172.112 15.3325 172.472 15.4732 172.753 15.7546C173.05 16.0204 173.199 16.3565 173.199 16.763C173.199 17.1851 173.05 17.5446 172.753 17.8417C172.472 18.1231 172.112 18.2638 171.674 18.2638ZM179.256 22.7428C179.647 22.0237 180.225 21.4765 180.991 21.1013C181.757 20.7261 182.687 20.5385 183.782 20.5385V22.7194C183.657 22.7037 183.485 22.6959 183.266 22.6959C182.046 22.6959 181.085 23.0633 180.381 23.7981C179.694 24.5172 179.35 25.549 179.35 26.8935V33.0844H177.098V20.6557H179.256V22.7428Z" fill="#EE4D2D"/>
<defs>
<clipPath id="clip0">
<rect width="123.993" height="39.1557" fill="white" transform="translate(0 0.0844421)"/>
</clipPath>
</defs>
</svg>
